<svg width="1600" height="900" viewBox="0 0 1600 900" fill="none" xmlns="http://www.w3.org/2000/svg">
  <defs>
    <linearGradient id="bg" x1="120" y1="120" x2="1480" y2="780" gradientUnits="userSpaceOnUse">
      <stop offset="0" stop-color="#0C1020"/>
      <stop offset="0.45" stop-color="#0A1125"/>
      <stop offset="1" stop-color="#050811"/>
    </linearGradient>
    <radialGradient id="flare" cx="0" cy="0" r="1" gradientUnits="userSpaceOnUse" gradientTransform="translate(470 410) rotate(90) scale(230)">
      <stop offset="0" stop-color="#FF9277" stop-opacity="0.72"/>
      <stop offset="0.6" stop-color="#FF666A" stop-opacity="0.18"/>
      <stop offset="1" stop-color="#FF666A" stop-opacity="0"/>
    </radialGradient>
    <linearGradient id="wordmark" x1="720" y1="354" x2="1210" y2="562" gradientUnits="userSpaceOnUse">
      <stop offset="0" stop-color="#FFF2E9"/>
      <stop offset="0.48" stop-color="#FFB397"/>
      <stop offset="1" stop-color="#F4706B"/>
    </linearGradient>
    <linearGradient id="body" x1="306" y1="242" x2="602" y2="626" gradientUnits="userSpaceOnUse">
      <stop offset="0" stop-color="#FF8271"/>
      <stop offset="0.58" stop-color="#F36666"/>
      <stop offset="1" stop-color="#D9505F"/>
    </linearGradient>
    <linearGradient id="limb" x1="278" y1="364" x2="644" y2="656" gradientUnits="userSpaceOnUse">
      <stop offset="0" stop-color="#FFB87D"/>
      <stop offset="1" stop-color="#E36A53"/>
    </linearGradient>
  </defs>

  <rect width="1600" height="900" rx="60" fill="url(#bg)"/>
  <circle cx="448" cy="410" r="240" fill="url(#flare)"/>
  <circle cx="1282" cy="196" r="2" fill="#FFE3D8" fill-opacity="0.62"/>
  <circle cx="1192" cy="152" r="3" fill="#9FFFF1" fill-opacity="0.7"/>
  <circle cx="1374" cy="248" r="2" fill="#FF8F76" fill-opacity="0.5"/>
  <circle cx="1320" cy="690" r="2" fill="#9FFFF1" fill-opacity="0.4"/>

  <g>
    <path d="M375 246C358 226 346 208 340 190C334 172 341 160 357 160C374 160 387 172 396 194C404 210 410 233 414 258" stroke="#FF7D67" stroke-width="18" stroke-linecap="round"/>
    <path d="M523 246C540 226 552 208 558 190C564 172 557 160 541 160C524 160 511 172 502 194C494 210 488 233 484 258" stroke="#FF7D67" stroke-width="18" stroke-linecap="round"/>
    <ellipse cx="450" cy="438" rx="156" ry="176" fill="url(#body)"/>
    <ellipse cx="354" cy="604" rx="48" ry="40" fill="url(#limb)"/>
    <ellipse cx="548" cy="604" rx="48" ry="40" fill="url(#limb)"/>
    <ellipse cx="298" cy="446" rx="28" ry="46" fill="url(#limb)"/>
    <ellipse cx="602" cy="446" rx="28" ry="46" fill="url(#limb)"/>
    <circle cx="398" cy="402" r="24" fill="#0A1020"/>
    <circle cx="500" cy="402" r="24" fill="#0A1020"/>
    <circle cx="392" cy="395" r="7" fill="#9FFFF1"/>
    <circle cx="494" cy="395" r="7" fill="#9FFFF1"/>
    <path d="M412 504C423 526 440 537 462 537C482 537 498 527 510 507" stroke="#FFD8CB" stroke-width="12" stroke-linecap="round"/>
  </g>

  <g>
    <text x="712" y="442" fill="url(#wordmark)" font-size="168" font-weight="800" font-family="Segoe UI, Arial, sans-serif" letter-spacing="-6">Lumena</text>
    <text x="720" y="516" fill="#B7B8C6" font-size="34" font-weight="600" font-family="Segoe UI, Arial, sans-serif" letter-spacing="6">LIVING LOCAL INTELLIGENCE</text>
    <rect x="720" y="560" width="182" height="12" rx="6" fill="#F26A67"/>
    <rect x="918" y="560" width="112" height="12" rx="6" fill="#FFB07B"/>
    <rect x="1044" y="560" width="74" height="12" rx="6" fill="#8BF1E6"/>
  </g>
</svg>
